<svg xmlns="http://www.w3.org/2000/svg" width="1463" height="1532" viewBox="0 0 1463 1532"><defs><style type="text/css"/></defs><g transform="translate(845.3751279907406 648.5) scale(1)"><g class="relationship"><g transform="translate(-753.3751279907406 -111.52723287780077) rotate(-0.8447879649333013)" stroke-width="2" stroke="#A6B7C8"><path d="M 92 0 L 739.8119511077646 0"/><polygon points="-14.155129855222071,0 -15.727922061357857,5.242640687119286 0,0 -15.727922061357857,-5.242640687119286" fill="#A6B7C8" transform="translate(753.9670809629866 0) rotate(0)" stroke="none"/></g></g><g class="relationship"><g transform="translate(-753.3751279907406 -111.52723287780077) rotate(-90)" stroke-width="2" stroke="#A6B7C8"><path d="M 92 0 L 338.81763726697716 0"/><polygon points="-14.155129855222071,0 -15.727922061357857,5.242640687119286 0,0 -15.727922061357857,-5.242640687119286" fill="#A6B7C8" transform="translate(352.97276712219923 0) rotate(0)" stroke="none"/></g><g transform="translate(-753.3751279907406 -326.93605151128935) rotate(90) translate(0 -14)"><g transform="translate(0 0)"><g transform="translate(-59 0)" fill="#2B2B2B" stroke="#000000" stroke-width="0"><rect x="0" y="0" width="118" height="28" rx="5" ry="5" stroke="none"/><text xml:space="preserve" x="5" y="18.940999857584636" stroke="none" text-anchor="left" font-family="Fira Code" font-size="18" font-weight="normal" fill="#A6B7C8">BELONGS_TO</text></g></g></g></g><g class="relationship"><g transform="translate(-753.3751279907406 -111.52723287780077) rotate(90)" stroke-width="2" stroke="#A6B7C8"><path d="M 92 0 L 338.81763726697716 0"/><polygon points="-14.155129855222071,0 -15.727922061357857,5.242640687119286 0,0 -15.727922061357857,-5.242640687119286" fill="#A6B7C8" transform="translate(352.97276712219923 0) rotate(0)" stroke="none"/></g><g transform="translate(-753.3751279907406 103.88158575568781) rotate(270) translate(0 -14)"><g transform="translate(0 0)"><g transform="translate(-69.80000305175781 0)" fill="#2B2B2B" stroke="#000000" stroke-width="0"><rect x="0" y="0" width="139.60000610351562" height="28" rx="5" ry="5" stroke="none"/><text xml:space="preserve" x="5" y="18.940999857584636" stroke="none" text-anchor="left" font-family="Fira Code" font-size="18" font-weight="normal" fill="#A6B7C8">PUBLISHED_ON</text></g></g></g></g><g class="relationship"><g transform="translate(-753.3751279907406 333.44553424439846) rotate(90)" stroke-width="2" stroke="#A6B7C8"><path d="M 92 0 L 351.29040438918196 0"/><polygon points="-14.155129855222071,0 -15.727922061357857,5.242640687119286 0,0 -15.727922061357857,-5.242640687119286" fill="#A6B7C8" transform="translate(365.44553424440403 0) rotate(0)" stroke="none"/></g><g transform="translate(-753.3751279907406 555.0907364389894) rotate(270) translate(0 -14)"><g transform="translate(0 0)"><g transform="translate(-53.599998474121094 0)" fill="#2B2B2B" stroke="#000000" stroke-width="0"><rect x="0" y="0" width="107.19999694824219" height="28" rx="5" ry="5" stroke="none"/><text xml:space="preserve" x="5" y="18.940999857584636" stroke="none" text-anchor="left" font-family="Fira Code" font-size="18" font-weight="normal" fill="#A6B7C8">HAS_MONTH</text></g></g></g></g><g class="relationship"><g transform="translate(-753.3751279907406 790.8910684888025) rotate(0)" stroke-width="2" stroke="#A6B7C8"><path d="M 92 0 L 307.2199981355185 0"/><polygon points="-14.155129855222071,0 -15.727922061357857,5.242640687119286 0,0 -15.727922061357857,-5.242640687119286" fill="#A6B7C8" transform="translate(321.37512799074057 0) rotate(0)" stroke="none"/></g><g transform="translate(-553.7651289229814 790.8910684888025) rotate(0) translate(0 -14)"><g transform="translate(0 0)"><g transform="translate(-42.79999923706055 0)" fill="#2B2B2B" stroke="#000000" stroke-width="0"><rect x="0" y="0" width="85.5999984741211" height="28" rx="5" ry="5" stroke="none"/><text xml:space="preserve" x="5" y="18.940999857584636" stroke="none" text-anchor="left" font-family="Fira Code" font-size="18" font-weight="normal" fill="#A6B7C8">HAS_DAY</text></g></g></g></g><g class="relationship"><g transform="translate(-340 -556.5) rotate(132.8917706265343)" stroke-width="2" stroke="#A6B7C8"><path d="M 92 0 L 501.19959345048176 0"/><polygon points="-14.155129855222071,0 -15.727922061357857,5.242640687119286 0,0 -15.727922061357857,-5.242640687119286" fill="#A6B7C8" transform="translate(515.3547233057038 0) rotate(0)" stroke="none"/></g><g transform="translate(-541.8704625626358 -339.1989282994636) rotate(312.8917706265343) translate(0 -14)"><g transform="translate(0 0)"><g transform="translate(-32 0)" fill="#2B2B2B" stroke="#000000" stroke-width="0"><rect x="0" y="0" width="64" height="28" rx="5" ry="5" stroke="none"/><text xml:space="preserve" x="5" y="18.940999857584636" stroke="none" text-anchor="left" font-family="Fira Code" font-size="18" font-weight="normal" fill="#A6B7C8">WROTE</text></g></g></g></g><g class="relationship"><g transform="translate(-340 -556.5) rotate(180)" stroke-width="2" stroke="#A6B7C8"><path d="M 92 0 L 307.2199981355185 0"/><polygon points="-14.155129855222071,0 -15.727922061357857,5.242640687119286 0,0 -15.727922061357857,-5.242640687119286" fill="#A6B7C8" transform="translate(321.37512799074057 0) rotate(0)" stroke="none"/></g><g transform="translate(-539.6099990677592 -556.5) rotate(360) translate(0 -14)"><g transform="translate(0 0)"><g transform="translate(-59 0)" fill="#2B2B2B" stroke="#000000" stroke-width="0"><rect x="0" y="0" width="118" height="28" rx="5" ry="5" stroke="none"/><text xml:space="preserve" x="5" y="18.940999857584636" stroke="none" text-anchor="left" font-family="Fira Code" font-size="18" font-weight="normal" fill="#A6B7C8">SERIALIZED</text></g></g></g></g><g class="relationship"><g transform="translate(92.5 -556.5) rotate(90)" stroke-width="2" stroke="#A6B7C8"><path d="M 92 0 L 326.34487014477793 0"/><polygon points="-14.155129855222071,0 -15.727922061357857,5.242640687119286 0,0 -15.727922061357857,-5.242640687119286" fill="#A6B7C8" transform="translate(340.5 0) rotate(0)" stroke="none"/></g><g transform="translate(92.50000000000001 -347.32756492761104) rotate(270) translate(0 -14)"><g transform="translate(0 0)"><g transform="translate(-32 0)" fill="#2B2B2B" stroke="#000000" stroke-width="0"><rect x="0" y="0" width="64" height="28" rx="5" ry="5" stroke="none"/><text xml:space="preserve" x="5" y="18.940999857584636" stroke="none" text-anchor="left" font-family="Fira Code" font-size="18" font-weight="normal" fill="#A6B7C8">HOSTS</text></g></g></g></g><g class="relationship"><g transform="translate(-323.91048455559815 317.9374105573416) rotate(-135)" stroke-width="2" stroke="#A6B7C8"><path d="M 92 0 L 501.19959345048164 0"/><polygon points="-14.155129855222071,0 -15.727922061357857,5.242640687119286 0,0 -15.727922061357857,-5.242640687119286" fill="#A6B7C8" transform="translate(515.3547233057037 0) rotate(0)" stroke="none"/></g><g transform="translate(-533.6382121185675 108.20968299437223) rotate(45) translate(0 -14)"><g transform="translate(0 0)"><g transform="translate(-53.599998474121094 0)" fill="#2B2B2B" stroke="#000000" stroke-width="0"><rect x="0" y="0" width="107.19999694824219" height="28" rx="5" ry="5" stroke="none"/><text xml:space="preserve" x="5" y="18.940999857584636" stroke="none" text-anchor="left" font-family="Fira Code" font-size="18" font-weight="normal" fill="#A6B7C8">PUBLISHED</text></g></g></g></g><g class="relationship"><g transform="translate(525 333.44553424440124) rotate(-160.8081767705901)" stroke-width="2" stroke="#A6B7C8"><path d="M 92 0 L 1247.4488489161656 0"/><polygon points="-14.155129855222071,0 -15.727922061357857,5.242640687119286 0,0 -15.727922061357857,-5.242640687119286" fill="#A6B7C8" transform="translate(1261.6039787713878 0) rotate(0)" stroke="none"/></g><g transform="translate(-107.50334681509139 113.28577183669313) rotate(19.19182322940988) translate(0 -24.799999999999997)"><g transform="translate(0 0)"><g transform="translate(-26.600000381469727 0)" fill="#2B2B2B" stroke="#000000" stroke-width="0"><rect x="0" y="0" width="53.20000076293945" height="28" rx="5" ry="5" stroke="none"/><text xml:space="preserve" x="5" y="18.940999857584636" stroke="none" text-anchor="left" font-family="Fira Code" font-size="18" font-weight="normal" fill="#A6B7C8">VOTE</text></g></g><g transform="translate(0 28)"><g transform="translate(-59.400001525878906 0)" fill="white"><rect x="0" y="0" width="118.80000305175781" height="21.599999999999998" rx="0" ry="0" stroke="none"/><g font-family="Fira Code" font-size="18" font-weight="normal" fill="#A6B7C8" text-anchor="end"><text xml:space="preserve" x="64.80000114440918" y="15.740999857584633" stroke="none">star:</text><text xml:space="preserve" x="75.60000133514404" y="15.740999857584633" stroke="none" text-anchor="start">int</text></g></g></g></g></g><g class="relationship"><g transform="translate(525 333.44553424440124) rotate(180)" stroke-width="2" stroke="#A6B7C8"><path d="M 92 0 L 326.34487014477793 0"/><polygon points="-14.155129855222071,0 -15.727922061357857,5.242640687119286 0,0 -15.727922061357857,-5.242640687119286" fill="#A6B7C8" transform="translate(340.5 0) rotate(0)" stroke="none"/></g><g transform="translate(315.82756492761104 333.44553424440124) rotate(360) translate(0 -14)"><g transform="translate(0 0)"><g transform="translate(-32 0)" fill="#2B2B2B" stroke="#000000" stroke-width="0"><rect x="0" y="0" width="64" height="28" rx="5" ry="5" stroke="none"/><text xml:space="preserve" x="5" y="18.940999857584636" stroke="none" text-anchor="left" font-family="Fira Code" font-size="18" font-weight="normal" fill="#A6B7C8">HOLDS</text></g></g></g></g><g class="relationship"><g transform="translate(92.5 333.44553424440124) rotate(133.39439648524538)" stroke-width="2" stroke="#A6B7C8"><path d="M 92 0 L 523.37856010914 0"/><polygon points="-14.155129855222071,0 -15.727922061357857,5.242640687119286 0,0 -15.727922061357857,-5.242640687119286" fill="#A6B7C8" transform="translate(537.5336899643621 0) rotate(0)" stroke="none"/></g><g transform="translate(-118.8875964781725 557.0254463914475) rotate(313.39439648524535) translate(0 -14)"><g transform="translate(0 0)"><g transform="translate(-64.4000015258789 0)" fill="#2B2B2B" stroke="#000000" stroke-width="0"><rect x="0" y="0" width="128.8000030517578" height="28" rx="5" ry="5" stroke="none"/><text xml:space="preserve" x="5" y="18.940999857584636" stroke="none" text-anchor="left" font-family="Fira Code" font-size="18" font-weight="normal" fill="#A6B7C8">RESERVES_ON</text></g></g></g></g><g class="relationship"><g transform="translate(92.5 333.44553424440124) rotate(-90)" stroke-width="2" stroke="#A6B7C8"><path d="M 92 0 L 351.2904043891792 0"/><polygon points="-14.155129855222071,0 -15.727922061357857,5.242640687119286 0,0 -15.727922061357857,-5.242640687119286" fill="#A6B7C8" transform="translate(365.44553424440124 0) rotate(0)" stroke="none"/></g><g transform="translate(92.50000000000001 111.80033204981166) rotate(90) translate(0 -14)"><g transform="translate(0 0)"><g transform="translate(-69.80000305175781 0)" fill="#2B2B2B" stroke="#000000" stroke-width="0"><rect x="0" y="0" width="139.60000610351562" height="28" rx="5" ry="5" stroke="none"/><text xml:space="preserve" x="5" y="18.940999857584636" stroke="none" text-anchor="left" font-family="Fira Code" font-size="18" font-weight="normal" fill="#A6B7C8">RESERVES_FOR</text></g></g></g></g><g class="relationship"><g transform="translate(525 333.44553424440124) rotate(133.39439648524538)" stroke-width="2" stroke="#A6B7C8"><path d="M 92 0 L 523.37856010914 0"/><polygon points="-14.155129855222071,0 -15.727922061357857,5.242640687119286 0,0 -15.727922061357857,-5.242640687119286" fill="#A6B7C8" transform="translate(537.5336899643621 0) rotate(0)" stroke="none"/></g><g transform="translate(313.6124035218275 557.0254463914475) rotate(313.39439648524535) translate(0 -14)"><g transform="translate(0 0)"><g transform="translate(-53.599998474121094 0)" fill="#2B2B2B" stroke="#000000" stroke-width="0"><rect x="0" y="0" width="107.19999694824219" height="28" rx="5" ry="5" stroke="none"/><text xml:space="preserve" x="5" y="18.940999857584636" stroke="none" text-anchor="left" font-family="Fira Code" font-size="18" font-weight="normal" fill="#A6B7C8">DOES_READ</text></g></g></g></g><g class="relationship"><g transform="translate(92.5 790.8910684888025) rotate(180)" stroke-width="2" stroke="#A6B7C8"><path d="M 91.80441716367098 -5.995747596311361 L 151.81384391976317 -9.914963984204773 A 40 40 0 0 1 154.42069070076812 -10 L 216.25 -10 L 278.0793092992319 -10 A 40 40 0 0 1 280.68615608023686 -9.914963984204773 L 326.57054537725577 -6.918253963756175 L 326.57054537725577 -6.918253963756175"/><polygon points="-14.155129855222071,0 -15.727922061357857,5.242640687119286 0,0 -15.727922061357857,-5.242640687119286" fill="#A6B7C8" transform="translate(432.5 0) rotate(3.736681272592325) translate(-92 0)" stroke="none"/></g><g transform="translate(-123.75 800.8910684888025) rotate(360) translate(0 -14)"><g transform="translate(0 0)"><g transform="translate(-53.599998474121094 0)" fill="#2B2B2B" stroke="#000000" stroke-width="0"><rect x="0" y="0" width="107.19999694824219" height="28" rx="5" ry="5" stroke="none"/><text xml:space="preserve" x="5" y="18.940999857584636" stroke="none" text-anchor="left" font-family="Fira Code" font-size="18" font-weight="normal" fill="#A6B7C8">READ_FROM</text></g></g></g></g><g class="relationship"><g transform="translate(92.5 790.8910684888025) rotate(180)" stroke-width="2" stroke="#A6B7C8"><path d="M 91.80441716367098 5.995747596311361 L 151.81384391976317 9.914963984204773 A 40 40 0 0 0 154.42069070076812 10 L 216.25 10 L 278.0793092992319 10 A 40 40 0 0 0 280.68615608023686 9.914963984204773 L 326.57054537725577 6.918253963756175 L 326.57054537725577 6.918253963756175"/><polygon points="-14.155129855222071,0 -15.727922061357857,5.242640687119286 0,0 -15.727922061357857,-5.242640687119286" fill="#A6B7C8" transform="translate(432.5 0) rotate(-3.736681272592325) translate(-92 0)" stroke="none"/></g><g transform="translate(-123.75 780.8910684888025) rotate(360) translate(0 -14)"><g transform="translate(0 0)"><g transform="translate(-42.79999923706055 0)" fill="#2B2B2B" stroke="#000000" stroke-width="0"><rect x="0" y="0" width="85.5999984741211" height="28" rx="5" ry="5" stroke="none"/><text xml:space="preserve" x="5" y="18.940999857584636" stroke="none" text-anchor="left" font-family="Fira Code" font-size="18" font-weight="normal" fill="#A6B7C8">READ_TO</text></g></g></g></g><g class="relationship"><g transform="translate(92.5 -124) rotate(-160.9910573756881)" stroke-width="2" stroke="#A6B7C8"><path d="M 92 0 L 351.2904043891792 0"/><polygon points="-14.155129855222071,0 -15.727922061357857,5.242640687119286 0,0 -15.727922061357857,-5.242640687119286" fill="#A6B7C8" transform="translate(365.44553424440124 0) rotate(0)" stroke="none"/></g><g transform="translate(-117.05839061256123 -196.19332780634028) rotate(19.00894262431192) translate(0 -14)"><g transform="translate(0 0)"><g transform="translate(-69.80000305175781 0)" fill="#2B2B2B" stroke="#000000" stroke-width="0"><rect x="0" y="0" width="139.60000610351562" height="28" rx="5" ry="5" stroke="none"/><text xml:space="preserve" x="5" y="18.940999857584636" stroke="none" text-anchor="left" font-family="Fira Code" font-size="18" font-weight="normal" fill="#A6B7C8">PUBLISHED_AS</text></g></g></g></g><g class="relationship"><g transform="translate(525 333.44553424440124) rotate(-90)" stroke-width="2" stroke="#A6B7C8"><path d="M 92 0 L 351.2904043891792 0"/><polygon points="-14.155129855222071,0 -15.727922061357857,5.242640687119286 0,0 -15.727922061357857,-5.242640687119286" fill="#A6B7C8" transform="translate(365.44553424440124 0) rotate(0)" stroke="none"/></g><g transform="translate(525 111.80033204981166) rotate(90) translate(0 -14)"><g transform="translate(0 0)"><g transform="translate(-48.20000076293945 0)" fill="#2B2B2B" stroke="#000000" stroke-width="0"><rect x="0" y="0" width="96.4000015258789" height="28" rx="5" ry="5" stroke="none"/><text xml:space="preserve" x="5" y="18.940999857584636" stroke="none" text-anchor="left" font-family="Fira Code" font-size="18" font-weight="normal" fill="#A6B7C8">HAS_ROLE</text></g></g></g></g><g class="node"><g fill="#2B2B2B" stroke="#A6B7C8" stroke-width="2"><circle cx="-753.3751279907406" cy="-111.52723287780077" r="91"/></g><g transform="translate(-753.3751279907406 -111.52723287780077)"><g transform="scale(0.5427841692185278) translate(0 -107.99999999999999)"><g transform="translate(0 0)"><g fill="#A6B7C8" font-family="Fira Code" font-size="18" font-weight="normal" text-anchor="middle"><text xml:space="preserve" x="0" y="15.740999857584633" stroke="none">Book</text></g></g><g transform="translate(0 21.599999999999998)"><g transform="translate(-113.39999771118164 0)"><g font-family="Fira Code" font-size="18" font-weight="normal" fill="#A6B7C8" text-anchor="end"><text xml:space="preserve" x="161.9999942779541" y="15.740999857584633" stroke="none">isbn:</text><text xml:space="preserve" x="172.79999446868896" y="15.740999857584633" stroke="none" text-anchor="start">!str</text><text xml:space="preserve" x="161.9999942779541" y="37.340999857584634" stroke="none" text-anchor="end">plot:</text><text xml:space="preserve" x="172.79999446868896" y="37.340999857584634" stroke="none" text-anchor="start">str</text><text xml:space="preserve" x="161.9999942779541" y="58.94099985758463" stroke="none" text-anchor="end">title:</text><text xml:space="preserve" x="172.79999446868896" y="58.94099985758463" stroke="none" text-anchor="start">str</text><text xml:space="preserve" x="161.9999942779541" y="80.54099985758462" stroke="none" text-anchor="end">title_sort:</text><text xml:space="preserve" x="172.79999446868896" y="80.54099985758462" stroke="none" text-anchor="start">str</text><text xml:space="preserve" x="161.9999942779541" y="102.14099985758462" stroke="none" text-anchor="end">language:</text><text xml:space="preserve" x="172.79999446868896" y="102.14099985758462" stroke="none" text-anchor="start">str</text><text xml:space="preserve" x="161.9999942779541" y="123.74099985758461" stroke="none" text-anchor="end">cover_url:</text><text xml:space="preserve" x="172.79999446868896" y="123.74099985758461" stroke="none" text-anchor="start">str</text></g></g></g></g></g></g><g class="node"><g fill="#2B2B2B" stroke="#A6B7C8" stroke-width="2"><circle cx="92.5" cy="-124" r="91"/></g><g transform="translate(92.5 -124)"><g transform="scale(0.9743273916697165) translate(0 -32.4)"><g transform="translate(0 0)"><g fill="#A6B7C8" font-family="Fira Code" font-size="18" font-weight="normal" text-anchor="middle"><text xml:space="preserve" x="0" y="15.740999857584633" stroke="none">Copy</text></g></g><g transform="translate(0 21.599999999999998)"><g transform="translate(-81 0)"><g font-family="Fira Code" font-size="18" font-weight="normal" fill="#A6B7C8" text-anchor="end"><text xml:space="preserve" x="97.19999885559082" y="15.740999857584633" stroke="none">copy_id:</text><text xml:space="preserve" x="107.99999904632568" y="15.740999857584633" stroke="none" text-anchor="start">int</text><text xml:space="preserve" x="97.19999885559082" y="37.340999857584634" stroke="none" text-anchor="end">barcode:</text><text xml:space="preserve" x="107.99999904632568" y="37.340999857584634" stroke="none" text-anchor="start">!int</text></g></g></g></g></g></g><g class="node"><g fill="#2B2B2B" stroke="#A6B7C8" stroke-width="2"><circle cx="-753.3751279907406" cy="333.44553424439846" r="91"/></g><g transform="translate(-753.3751279907406 333.44553424439846)"><g transform="scale(1) translate(0 -21.599999999999998)"><g transform="translate(0 0)"><g fill="#A6B7C8" font-family="Fira Code" font-size="18" font-weight="normal" text-anchor="middle"><text xml:space="preserve" x="0" y="15.740999857584633" stroke="none">Year</text></g></g><g transform="translate(0 21.599999999999998)"><g transform="translate(-64.80000114440918 0)"><g font-family="Fira Code" font-size="18" font-weight="normal" fill="#A6B7C8" text-anchor="end"><text xml:space="preserve" x="64.80000114440918" y="15.740999857584633" stroke="none">year:</text><text xml:space="preserve" x="75.60000133514404" y="15.740999857584633" stroke="none" text-anchor="start">!int</text></g></g></g></g></g></g><g class="node"><g fill="#2B2B2B" stroke="#A6B7C8" stroke-width="2"><circle cx="-753.3751279907406" cy="-556.5" r="91"/></g><g transform="translate(-753.3751279907406 -556.5)"><g transform="scale(1) translate(0 -21.599999999999998)"><g transform="translate(0 0)"><g fill="#A6B7C8" font-family="Fira Code" font-size="18" font-weight="normal" text-anchor="middle"><text xml:space="preserve" x="0" y="15.740999857584633" stroke="none">Saga</text></g></g><g transform="translate(0 21.599999999999998)"><g transform="translate(-75.60000228881836 0)"><g font-family="Fira Code" font-size="18" font-weight="normal" fill="#A6B7C8" text-anchor="end"><text xml:space="preserve" x="86.40000343322754" y="15.740999857584633" stroke="none">series:</text><text xml:space="preserve" x="97.2000036239624" y="15.740999857584633" stroke="none" text-anchor="start">!str</text></g></g></g></g></g></g><g class="node"><g fill="#2B2B2B" stroke="#A6B7C8" stroke-width="2"><circle cx="-753.3751279907406" cy="790.8910684888025" r="91"/></g><g transform="translate(-753.3751279907406 790.8910684888025)"><g transform="scale(1) translate(0 -21.599999999999998)"><g transform="translate(0 0)"><g fill="#A6B7C8" font-family="Fira Code" font-size="18" font-weight="normal" text-anchor="middle"><text xml:space="preserve" x="0" y="15.740999857584633" stroke="none">Month</text></g></g><g transform="translate(0 21.599999999999998)"><g transform="translate(-64.80000114440918 0)"><g font-family="Fira Code" font-size="18" font-weight="normal" fill="#A6B7C8" text-anchor="end"><text xml:space="preserve" x="75.60000038146973" y="15.740999857584633" stroke="none">month:</text><text xml:space="preserve" x="86.40000057220459" y="15.740999857584633" stroke="none" text-anchor="start">str</text></g></g></g></g></g></g><g class="node"><g fill="#2B2B2B" stroke="#A6B7C8" stroke-width="2"><circle cx="-340" cy="790.8910684888025" r="91"/></g><g transform="translate(-340 790.8910684888025)"><g transform="scale(1) translate(0 -21.599999999999998)"><g transform="translate(0 0)"><g fill="#A6B7C8" font-family="Fira Code" font-size="18" font-weight="normal" text-anchor="middle"><text xml:space="preserve" x="0" y="15.740999857584633" stroke="none">Day</text></g></g><g transform="translate(0 21.599999999999998)"><g transform="translate(-54.00000190734863 0)"><g font-family="Fira Code" font-size="18" font-weight="normal" fill="#A6B7C8" text-anchor="end"><text xml:space="preserve" x="54.00000190734863" y="15.740999857584633" stroke="none">day:</text><text xml:space="preserve" x="64.8000020980835" y="15.740999857584633" stroke="none" text-anchor="start">int</text></g></g></g></g></g></g><g class="node"><g fill="#2B2B2B" stroke="#A6B7C8" stroke-width="2"><circle cx="-340" cy="-556.5" r="91"/></g><g transform="translate(-340 -556.5)"><g transform="scale(0.7307455215015455) translate(0 -43.199999999999996)"><g transform="translate(0 0)"><g fill="#A6B7C8" font-family="Fira Code" font-size="18" font-weight="normal" text-anchor="middle"><text xml:space="preserve" x="0" y="15.740999857584633" stroke="none">Author</text></g></g><g transform="translate(0 21.599999999999998)"><g transform="translate(-108.00000381469727 0)"><g font-family="Fira Code" font-size="18" font-weight="normal" fill="#A6B7C8" text-anchor="end"><text xml:space="preserve" x="151.20000648498535" y="15.740999857584633" stroke="none">author:</text><text xml:space="preserve" x="162.00000667572021" y="15.740999857584633" stroke="none" text-anchor="start">!str</text><text xml:space="preserve" x="151.20000648498535" y="37.340999857584634" stroke="none" text-anchor="end">author_sort:</text><text xml:space="preserve" x="162.00000667572021" y="37.340999857584634" stroke="none" text-anchor="start">str</text><text xml:space="preserve" x="151.20000648498535" y="58.94099985758463" stroke="none" text-anchor="end">portrait_url:</text><text xml:space="preserve" x="162.00000667572021" y="58.94099985758463" stroke="none" text-anchor="start">str</text></g></g></g></g></g></g><g class="node"><g fill="#2B2B2B" stroke="#A6B7C8" stroke-width="2"><circle cx="92.5" cy="-556.5" r="91"/></g><g transform="translate(92.5 -556.5)"><g transform="scale(0.7564517189511052) translate(0 -64.8)"><g transform="translate(0 0)"><g fill="#A6B7C8" font-family="Fira Code" font-size="18" font-weight="normal" text-anchor="middle"><text xml:space="preserve" x="0" y="15.740999857584633" stroke="none">lIBRARY</text></g></g><g transform="translate(0 21.599999999999998)"><g transform="translate(-91.80000114440918 0)"><g font-family="Fira Code" font-size="18" font-weight="normal" fill="#A6B7C8" text-anchor="end"><text xml:space="preserve" x="108.00000190734863" y="15.740999857584633" stroke="none">name:</text><text xml:space="preserve" x="118.8000020980835" y="15.740999857584633" stroke="none" text-anchor="start">!str</text><text xml:space="preserve" x="108.00000190734863" y="37.340999857584634" stroke="none" text-anchor="end">phone:</text><text xml:space="preserve" x="118.8000020980835" y="37.340999857584634" stroke="none" text-anchor="start">int</text><text xml:space="preserve" x="108.00000190734863" y="58.94099985758463" stroke="none" text-anchor="end">address:</text><text xml:space="preserve" x="118.8000020980835" y="58.94099985758463" stroke="none" text-anchor="start">str</text><text xml:space="preserve" x="108.00000190734863" y="80.54099985758462" stroke="none" text-anchor="end">email:</text><text xml:space="preserve" x="118.8000020980835" y="80.54099985758462" stroke="none" text-anchor="start">str</text><text xml:space="preserve" x="108.00000190734863" y="102.14099985758462" stroke="none" text-anchor="end">location:</text><text xml:space="preserve" x="118.8000020980835" y="102.14099985758462" stroke="none" text-anchor="start">Point</text></g></g></g></g></g></g><g class="node"><g fill="#2B2B2B" stroke="#A6B7C8" stroke-width="2"><circle cx="-323.91048455559815" cy="317.9374105573416" r="91"/></g><g transform="translate(-323.91048455559815 317.9374105573416)"><g transform="scale(0.8536615174381993) translate(0 -21.599999999999998)"><g transform="translate(0 0)"><g fill="#A6B7C8" font-family="Fira Code" font-size="18" font-weight="normal" text-anchor="middle"><text xml:space="preserve" x="0" y="15.740999857584633" stroke="none">Publisher</text></g></g><g transform="translate(0 21.599999999999998)"><g transform="translate(-97.20000076293945 0)"><g font-family="Fira Code" font-size="18" font-weight="normal" fill="#A6B7C8" text-anchor="end"><text xml:space="preserve" x="129.60000038146973" y="15.740999857584633" stroke="none">publishing:</text><text xml:space="preserve" x="140.4000005722046" y="15.740999857584633" stroke="none" text-anchor="start">!str</text></g></g></g></g></g></g><g class="node"><g fill="#2B2B2B" stroke="#A6B7C8" stroke-width="2"><circle cx="525" cy="333.44553424440124" r="91"/></g><g transform="translate(525 333.44553424440124)"><g transform="scale(0.5996744599157385) translate(0 -107.99999999999999)"><g transform="translate(0 0)"><g fill="#A6B7C8" font-family="Fira Code" font-size="18" font-weight="normal" text-anchor="middle"><text xml:space="preserve" x="0" y="15.740999857584633" stroke="none">User</text></g></g><g transform="translate(0 21.599999999999998)"><g transform="translate(-91.80000114440918 0)"><g font-family="Fira Code" font-size="18" font-weight="normal" fill="#A6B7C8" text-anchor="end"><text xml:space="preserve" x="108.00000190734863" y="15.740999857584633" stroke="none">email:</text><text xml:space="preserve" x="118.8000020980835" y="15.740999857584633" stroke="none" text-anchor="start">!str</text><text xml:space="preserve" x="108.00000190734863" y="37.340999857584634" stroke="none" text-anchor="end">phone:</text><text xml:space="preserve" x="118.8000020980835" y="37.340999857584634" stroke="none" text-anchor="start">int</text><text xml:space="preserve" x="108.00000190734863" y="58.94099985758463" stroke="none" text-anchor="end">address:</text><text xml:space="preserve" x="118.8000020980835" y="58.94099985758463" stroke="none" text-anchor="start">str</text><text xml:space="preserve" x="108.00000190734863" y="80.54099985758462" stroke="none" text-anchor="end">name:</text><text xml:space="preserve" x="118.8000020980835" y="80.54099985758462" stroke="none" text-anchor="start">str</text><text xml:space="preserve" x="108.00000190734863" y="102.14099985758462" stroke="none" text-anchor="end">surname:</text><text xml:space="preserve" x="118.8000020980835" y="102.14099985758462" stroke="none" text-anchor="start">str</text><text xml:space="preserve" x="108.00000190734863" y="123.74099985758461" stroke="none" text-anchor="end">username:</text><text xml:space="preserve" x="118.8000020980835" y="123.74099985758461" stroke="none" text-anchor="start">!str</text><text xml:space="preserve" x="108.00000190734863" y="145.34099985758462" stroke="none" text-anchor="end">user_id:</text><text xml:space="preserve" x="118.8000020980835" y="145.34099985758462" stroke="none" text-anchor="start">!uuid</text><text xml:space="preserve" x="108.00000190734863" y="166.94099985758461" stroke="none" text-anchor="end">card_nr:</text><text xml:space="preserve" x="118.8000020980835" y="166.94099985758461" stroke="none" text-anchor="start">int</text><text xml:space="preserve" x="108.00000190734863" y="188.54099985758464" stroke="none" text-anchor="end">location:</text><text xml:space="preserve" x="118.8000020980835" y="188.54099985758464" stroke="none" text-anchor="start">Point</text></g></g></g></g></g></g><g class="node"><g fill="#2B2B2B" stroke="#A6B7C8" stroke-width="2"><circle cx="92.5" cy="333.44553424440124" r="91"/></g><g transform="translate(92.5 333.44553424440124)"><g transform="scale(1) translate(0 0)"><g transform="translate(0 0)"><g font-family="Fira Code" font-size="18" font-weight="normal" fill="#A6B7C8" text-anchor="middle"><text xml:space="preserve" x="0" y="4.940999857584635" stroke="none">Reservation</text></g></g></g></g></g><g class="node"><g fill="#2B2B2B" stroke="#A6B7C8" stroke-width="2"><circle cx="92.5" cy="790.8910684888025" r="91"/></g><g transform="translate(92.5 790.8910684888025)"><g transform="scale(1) translate(0 0)"><g transform="translate(0 0)"><g font-family="Fira Code" font-size="18" font-weight="normal" fill="#A6B7C8" text-anchor="middle"><text xml:space="preserve" x="0" y="4.940999857584635" stroke="none">Reading</text></g></g></g></g></g><g class="node"><g fill="#2B2B2B" stroke="#A6B7C8" stroke-width="2"><circle cx="-340" cy="-272.99720400110084" r="91"/></g><g transform="translate(-340 -272.99720400110084)"><g transform="scale(1) translate(0 -21.599999999999998)"><g transform="translate(0 0)"><g fill="#A6B7C8" font-family="Fira Code" font-size="18" font-weight="normal" text-anchor="middle"><text xml:space="preserve" x="0" y="15.740999857584633" stroke="none">Format</text></g></g><g transform="translate(0 21.599999999999998)"><g transform="translate(-64.80000114440918 0)"><g font-family="Fira Code" font-size="18" font-weight="normal" fill="#A6B7C8" text-anchor="end"><text xml:space="preserve" x="64.80000114440918" y="15.740999857584633" stroke="none">type:</text><text xml:space="preserve" x="75.60000133514404" y="15.740999857584633" stroke="none" text-anchor="start">!str</text></g></g></g></g></g></g><g class="node"><g fill="#2B2B2B" stroke="#A6B7C8" stroke-width="2"><circle cx="525" cy="-124" r="91"/></g><g transform="translate(525 -124)"><g transform="scale(1) translate(0 -21.599999999999998)"><g transform="translate(0 0)"><g fill="#A6B7C8" font-family="Fira Code" font-size="18" font-weight="normal" text-anchor="middle"><text xml:space="preserve" x="0" y="15.740999857584633" stroke="none">Role</text></g></g><g transform="translate(0 21.599999999999998)"><g transform="translate(-64.80000114440918 0)"><g font-family="Fira Code" font-size="18" font-weight="normal" fill="#A6B7C8" text-anchor="end"><text xml:space="preserve" x="64.80000114440918" y="15.740999857584633" stroke="none">role:</text><text xml:space="preserve" x="75.60000133514404" y="15.740999857584633" stroke="none" text-anchor="start">!str</text></g></g></g></g></g></g></g></svg>